<svg width="166" height="36" viewBox="0 0 166 36" fill="none" xmlns="http://www.w3.org/2000/svg">
<circle cx="104.5" cy="18.5" r="15.5" fill="#4D9491"/>
<path d="M10.08 26L6.576 19.64H5.592V26H1.488V9.152H8.376C9.704 9.152 10.832 9.384 11.76 9.848C12.704 10.312 13.408 10.952 13.872 11.768C14.336 12.568 14.568 13.464 14.568 14.456C14.568 15.576 14.248 16.576 13.608 17.456C12.984 18.336 12.056 18.96 10.824 19.328L14.712 26H10.08ZM5.592 16.736H8.136C8.888 16.736 9.448 16.552 9.816 16.184C10.2 15.816 10.392 15.296 10.392 14.624C10.392 13.984 10.2 13.48 9.816 13.112C9.448 12.744 8.888 12.56 8.136 12.56H5.592V16.736ZM16.3283 19.28C16.3283 17.904 16.5843 16.696 17.0963 15.656C17.6243 14.616 18.3363 13.816 19.2323 13.256C20.1283 12.696 21.1283 12.416 22.2323 12.416C23.1763 12.416 24.0003 12.608 24.7043 12.992C25.4243 13.376 25.9763 13.88 26.3603 14.504V12.608H30.4643V26H26.3603V24.104C25.9603 24.728 25.4003 25.232 24.6803 25.616C23.9763 26 23.1523 26.192 22.2083 26.192C21.1203 26.192 20.1283 25.912 19.2323 25.352C18.3363 24.776 17.6243 23.968 17.0963 22.928C16.5843 21.872 16.3283 20.656 16.3283 19.28ZM26.3603 19.304C26.3603 18.28 26.0723 17.472 25.4963 16.88C24.9363 16.288 24.2483 15.992 23.4323 15.992C22.6163 15.992 21.9203 16.288 21.3443 16.88C20.7843 17.456 20.5043 18.256 20.5043 19.28C20.5043 20.304 20.7843 21.12 21.3443 21.728C21.9203 22.32 22.6163 22.616 23.4323 22.616C24.2483 22.616 24.9363 22.32 25.4963 21.728C26.0723 21.136 26.3603 20.328 26.3603 19.304ZM41.6653 12.464C43.2013 12.464 44.4333 12.976 45.3613 14C46.2893 15.008 46.7533 16.4 46.7533 18.176V26H42.6733V18.728C42.6733 17.832 42.4413 17.136 41.9773 16.64C41.5133 16.144 40.8893 15.896 40.1053 15.896C39.3213 15.896 38.6973 16.144 38.2333 16.64C37.7693 17.136 37.5373 17.832 37.5373 18.728V26H33.4333V8.24H37.5373V14.408C37.9533 13.816 38.5213 13.344 39.2413 12.992C39.9613 12.64 40.7693 12.464 41.6653 12.464ZM66.6932 12.464C68.3572 12.464 69.6772 12.968 70.6532 13.976C71.6452 14.984 72.1412 16.384 72.1412 18.176V26H68.0612V18.728C68.0612 17.864 67.8292 17.2 67.3652 16.736C66.9172 16.256 66.2932 16.016 65.4932 16.016C64.6932 16.016 64.0612 16.256 63.5972 16.736C63.1492 17.2 62.9252 17.864 62.9252 18.728V26H58.8452V18.728C58.8452 17.864 58.6132 17.2 58.1492 16.736C57.7012 16.256 57.0772 16.016 56.2772 16.016C55.4772 16.016 54.8452 16.256 54.3812 16.736C53.9332 17.2 53.7092 17.864 53.7092 18.728V26H49.6052V12.608H53.7092V14.288C54.1252 13.728 54.6692 13.288 55.3412 12.968C56.0132 12.632 56.7732 12.464 57.6212 12.464C58.6292 12.464 59.5252 12.68 60.3092 13.112C61.1092 13.544 61.7332 14.16 62.1812 14.96C62.6452 14.224 63.2772 13.624 64.0772 13.16C64.8772 12.696 65.7492 12.464 66.6932 12.464ZM74.1954 19.28C74.1954 17.904 74.4514 16.696 74.9634 15.656C75.4914 14.616 76.2034 13.816 77.0994 13.256C77.9954 12.696 78.9954 12.416 80.0994 12.416C81.0434 12.416 81.8674 12.608 82.5714 12.992C83.2914 13.376 83.8434 13.88 84.2274 14.504V12.608H88.3314V26H84.2274V24.104C83.8274 24.728 83.2674 25.232 82.5474 25.616C81.8434 26 81.0194 26.192 80.0754 26.192C78.9874 26.192 77.9954 25.912 77.0994 25.352C76.2034 24.776 75.4914 23.968 74.9634 22.928C74.4514 21.872 74.1954 20.656 74.1954 19.28ZM84.2274 19.304C84.2274 18.28 83.9394 17.472 83.3634 16.88C82.8034 16.288 82.1154 15.992 81.2994 15.992C80.4834 15.992 79.7874 16.288 79.2114 16.88C78.6514 17.456 78.3714 18.256 78.3714 19.28C78.3714 20.304 78.6514 21.12 79.2114 21.728C79.7874 22.32 80.4834 22.616 81.2994 22.616C82.1154 22.616 82.8034 22.32 83.3634 21.728C83.9394 21.136 84.2274 20.328 84.2274 19.304ZM90.4845 19.28C90.4845 17.904 90.7405 16.696 91.2525 15.656C91.7805 14.616 92.4925 13.816 93.3885 13.256C94.2845 12.696 95.2845 12.416 96.3885 12.416C97.2685 12.416 98.0685 12.6 98.7885 12.968C99.5245 13.336 100.101 13.832 100.517 14.456V8.24H104.621V26H100.517V24.08C100.133 24.72 99.5805 25.232 98.8605 25.616C98.1565 26 97.3325 26.192 96.3885 26.192C95.2845 26.192 94.2845 25.912 93.3885 25.352C92.4925 24.776 91.7805 23.968 91.2525 22.928C90.7405 21.872 90.4845 20.656 90.4845 19.28ZM100.517 19.304C100.517 18.28 100.229 17.472 99.6525 16.88C99.0925 16.288 98.4045 15.992 97.5885 15.992C96.7725 15.992 96.0765 16.288 95.5005 16.88C94.9405 17.456 94.6605 18.256 94.6605 19.28C94.6605 20.304 94.9405 21.12 95.5005 21.728C96.0765 22.32 96.7725 22.616 97.5885 22.616C98.4045 22.616 99.0925 22.32 99.6525 21.728C100.229 21.136 100.517 20.328 100.517 19.304ZM120.214 19.088C120.214 19.472 120.19 19.872 120.142 20.288H110.854C110.918 21.12 111.182 21.76 111.646 22.208C112.126 22.64 112.71 22.856 113.398 22.856C114.422 22.856 115.134 22.424 115.534 21.56H119.902C119.678 22.44 119.27 23.232 118.678 23.936C118.102 24.64 117.374 25.192 116.494 25.592C115.614 25.992 114.63 26.192 113.542 26.192C112.23 26.192 111.062 25.912 110.038 25.352C109.014 24.792 108.214 23.992 107.638 22.952C107.062 21.912 106.774 20.696 106.774 19.304C106.774 17.912 107.054 16.696 107.614 15.656C108.19 14.616 108.99 13.816 110.014 13.256C111.038 12.696 112.214 12.416 113.542 12.416C114.838 12.416 115.99 12.688 116.998 13.232C118.006 13.776 118.79 14.552 119.35 15.56C119.926 16.568 120.214 17.744 120.214 19.088ZM116.014 18.008C116.014 17.304 115.774 16.744 115.294 16.328C114.814 15.912 114.214 15.704 113.494 15.704C112.806 15.704 112.222 15.904 111.742 16.304C111.278 16.704 110.99 17.272 110.878 18.008H116.014ZM135.003 19.088C135.003 19.472 134.979 19.872 134.931 20.288H125.643C125.707 21.12 125.971 21.76 126.435 22.208C126.915 22.64 127.499 22.856 128.187 22.856C129.211 22.856 129.923 22.424 130.323 21.56H134.691C134.467 22.44 134.059 23.232 133.467 23.936C132.891 24.64 132.163 25.192 131.283 25.592C130.403 25.992 129.419 26.192 128.331 26.192C127.019 26.192 125.851 25.912 124.827 25.352C123.803 24.792 123.003 23.992 122.427 22.952C121.851 21.912 121.563 20.696 121.563 19.304C121.563 17.912 121.843 16.696 122.403 15.656C122.979 14.616 123.779 13.816 124.803 13.256C125.827 12.696 127.003 12.416 128.331 12.416C129.627 12.416 130.779 12.688 131.787 13.232C132.795 13.776 133.579 14.552 134.139 15.56C134.715 16.568 135.003 17.744 135.003 19.088ZM130.803 18.008C130.803 17.304 130.563 16.744 130.083 16.328C129.603 15.912 129.003 15.704 128.283 15.704C127.595 15.704 127.011 15.904 126.531 16.304C126.067 16.704 125.779 17.272 125.667 18.008H130.803Z" fill="#3E4949"/>
<path d="M165 6V31.5" stroke="#E5E5E5" stroke-width="2" stroke-linecap="round"/>
</svg>
