<svg width="30" height="30" viewBox="0 0 30 30" fill="none" xmlns="http://www.w3.org/2000/svg">
<path d="M23.0505 6.17593C23.0905 6.07108 23.1002 5.95623 23.0786 5.8456C23.0571 5.73498 23.0051 5.63344 22.9291 5.55359C22.8531 5.47374 22.7566 5.41907 22.6513 5.39638C22.5461 5.37369 22.4369 5.38396 22.3371 5.42593L6.3709 12.1402C6.2303 12.1993 6.10794 12.2981 6.0173 12.4257C5.92667 12.5533 5.87127 12.7046 5.8572 12.8632C5.84313 13.0217 5.87093 13.1813 5.93756 13.3242C6.00418 13.4672 6.10704 13.5881 6.23481 13.6736L11.7171 17.3405L13.3975 20.1167C13.4769 20.2427 13.6001 20.3309 13.7406 20.3624C13.8812 20.3939 14.0279 20.3661 14.1492 20.2851C14.2705 20.2041 14.3568 20.0763 14.3894 19.9292C14.4221 19.782 14.3985 19.6273 14.3238 19.4982L12.8136 17.0036L21.0387 8.3567L18.9588 13.8236C18.9303 13.8943 18.9154 13.9702 18.9151 14.047C18.9148 14.1237 18.9291 14.1998 18.9571 14.2707C18.9851 14.3416 19.0263 14.4059 19.0782 14.4599C19.1302 14.5138 19.1919 14.5563 19.2597 14.5849C19.3274 14.6134 19.4 14.6275 19.473 14.6262C19.546 14.6249 19.618 14.6083 19.6849 14.5774C19.7517 14.5465 19.812 14.5019 19.8623 14.4461C19.9125 14.3904 19.9516 14.3247 19.9774 14.2529L23.0505 6.17593V6.17593ZM20.2627 7.54093L12.0376 16.1879L7.27529 13.0021L20.2627 7.54093V7.54093Z" fill="#69F7BB"/>
<circle cx="15" cy="15" r="14.5" stroke="#B6CCB0"/>
<path d="M23.09 19.8075C23.09 20.8785 22.6853 21.9057 21.9649 22.6631C21.2445 23.4205 20.2674 23.8459 19.2486 23.8459C18.2297 23.8459 17.2527 23.4205 16.5322 22.6631C15.8118 21.9057 15.4071 20.8785 15.4071 19.8075C15.4071 18.7364 15.8118 17.7092 16.5322 16.9519C17.2527 16.1945 18.2297 15.769 19.2486 15.769C20.2674 15.769 21.2445 16.1945 21.9649 16.9519C22.6853 17.7092 23.09 18.7364 23.09 19.8075ZM20.9026 17.8702C20.8408 17.8312 20.7722 17.8054 20.7009 17.7943C20.6296 17.7832 20.5569 17.787 20.487 17.8054C20.4171 17.8239 20.3513 17.8566 20.2934 17.9017C20.2356 17.9469 20.1867 18.0036 20.1497 18.0686L18.8655 20.3186L18.2652 19.6875C18.1621 19.5791 18.0223 19.5183 17.8766 19.5183C17.7309 19.5183 17.5911 19.5791 17.4881 19.6875C17.385 19.7958 17.3271 19.9427 17.3271 20.0959C17.3271 20.2491 17.385 20.3961 17.4881 20.5044L18.3376 21.3963C18.426 21.4895 18.5335 21.5602 18.6518 21.6031C18.7701 21.646 18.8962 21.66 19.0204 21.6439C19.1447 21.6279 19.2638 21.5823 19.3688 21.5106C19.4737 21.4389 19.5617 21.343 19.6261 21.2302L21.0914 18.6617C21.1284 18.5967 21.1529 18.5247 21.1635 18.4497C21.1741 18.3747 21.1705 18.2983 21.153 18.2248C21.1354 18.1513 21.1043 18.0822 21.0613 18.0213C21.0184 17.9605 20.9644 17.9091 20.9026 17.8702Z" fill="#69F7BB"/>
</svg>
